<svg width="241" height="242" viewBox="0 0 241 242" fill="none" xmlns="http://www.w3.org/2000/svg">
<path d="M122.88 233.4C182.173 233.4 230.24 183.399 230.24 121.72C230.24 60.0408 182.173 10.04 122.88 10.04C63.5863 10.04 15.5195 60.0408 15.5195 121.72C15.5195 183.399 63.5863 233.4 122.88 233.4Z" fill="white" stroke="white" stroke-width="0.639874" stroke-miterlimit="22.9256"/>
<path fill-rule="evenodd" clip-rule="evenodd" d="M176.948 170.902C181.262 180.027 169.652 188.124 160.886 188.721L86.5519 188.799C75.3169 188.783 64.5056 185.193 65.8753 172.087C64.7346 156.484 64.3604 145.933 79.223 137.343C91.807 130.068 105.216 126.502 120.245 126.424C144.807 126.297 187.477 138.039 176.948 170.902ZM95.3057 90.6053C94.0018 46.426 151.264 51.5027 145.991 91.9103C148.621 96.7032 143.306 105.849 139.873 109.759C135.56 114.674 128.421 118.149 121.421 118.198C106.48 118.305 93.9209 105.862 95.3057 90.6053ZM2.40944 137.728C11.6058 202.898 72.9551 249.546 138.342 239.363C203.488 229.215 249.074 169.149 239.261 103.472C229.549 38.469 169.664 -6.60569 104.386 2.33705C38.7632 11.3278 -6.85418 72.0901 2.40944 137.728Z" fill="#30C765" stroke="#30C765" stroke-width="0.639874" stroke-miterlimit="22.9256"/>
<path fill-rule="evenodd" clip-rule="evenodd" d="M95.3071 90.6053C99.9219 102.408 105.732 111.03 120.246 111.307C134.097 111.573 141.335 103.687 145.993 91.9104C151.266 51.5027 94.0032 46.426 95.3071 90.6053Z" fill="white" stroke="#30C765" stroke-width="0.639874" stroke-miterlimit="22.9256"/>
<path fill-rule="evenodd" clip-rule="evenodd" d="M65.8755 172.087C64.5058 185.193 75.3171 188.783 86.5522 188.799L160.886 188.721C169.652 188.124 181.263 180.027 176.948 170.902C172.861 181.377 165.657 182.218 155.084 182.203L90.0717 182.188C73.7913 182.255 75.7299 182.313 65.8755 172.087Z" fill="#378A4D" stroke="#378A4D" stroke-width="0.639874" stroke-miterlimit="22.9256"/>
<path fill-rule="evenodd" clip-rule="evenodd" d="M145.99 91.9105C141.331 103.687 134.094 111.573 120.243 111.307C105.729 111.03 99.9186 102.408 95.3038 90.6055C93.919 105.863 106.478 118.306 121.419 118.199C128.419 118.149 135.558 114.674 139.871 109.759C143.304 105.849 148.619 96.7034 145.99 91.9105Z" fill="#378A4D" stroke="#378A4D" stroke-width="0.639874" stroke-miterlimit="22.9256"/>
</svg>
